<svg xmlns="http://www.w3.org/2000/svg" xmlns:xlink="http://www.w3.org/1999/xlink" width="192" zoomAndPan="magnify" viewBox="0 0 144 143.999998" height="192" preserveAspectRatio="xMidYMid meet" version="1.0"><defs><g/><clipPath id="c39faa4fce"><path d="M 72 0 C 32.234375 0 0 32.234375 0 72 C 0 111.765625 32.234375 144 72 144 C 111.765625 144 144 111.765625 144 72 C 144 32.234375 111.765625 0 72 0 Z M 72 0 " clip-rule="nonzero"/></clipPath><clipPath id="a5176435bb"><path d="M 0 0 L 144 0 L 144 144 L 0 144 Z M 0 0 " clip-rule="nonzero"/></clipPath><clipPath id="228c96cd6f"><path d="M 72 0 C 32.234375 0 0 32.234375 0 72 C 0 111.765625 32.234375 144 72 144 C 111.765625 144 144 111.765625 144 72 C 144 32.234375 111.765625 0 72 0 Z M 72 0 " clip-rule="nonzero"/></clipPath><clipPath id="45f579503c"><rect x="0" width="144" y="0" height="144"/></clipPath><clipPath id="649b799317"><path d="M 7.25 7.25 L 137 7.25 L 137 137 L 7.25 137 Z M 7.25 7.25 " clip-rule="nonzero"/></clipPath><clipPath id="5c316f3bec"><path d="M 71.996094 7.25 C 36.238281 7.25 7.25 36.238281 7.25 71.996094 C 7.25 107.753906 36.238281 136.742188 71.996094 136.742188 C 107.753906 136.742188 136.742188 107.753906 136.742188 71.996094 C 136.742188 36.238281 107.753906 7.25 71.996094 7.25 Z M 71.996094 7.25 " clip-rule="nonzero"/></clipPath><clipPath id="bdeef7979a"><path d="M 27.183594 27.183594 L 116.816406 27.183594 L 116.816406 116.816406 L 27.183594 116.816406 Z M 27.183594 27.183594 " clip-rule="nonzero"/></clipPath><clipPath id="d55fabe051"><path d="M 72 27.183594 C 47.246094 27.183594 27.183594 47.246094 27.183594 72 C 27.183594 96.753906 47.246094 116.816406 72 116.816406 C 96.753906 116.816406 116.816406 96.753906 116.816406 72 C 116.816406 47.246094 96.753906 27.183594 72 27.183594 Z M 72 27.183594 " clip-rule="nonzero"/></clipPath><clipPath id="4640fb1085"><path d="M 0.183594 0.183594 L 89.816406 0.183594 L 89.816406 89.816406 L 0.183594 89.816406 Z M 0.183594 0.183594 " clip-rule="nonzero"/></clipPath><clipPath id="ba4cbba456"><path d="M 45 0.183594 C 20.246094 0.183594 0.183594 20.246094 0.183594 45 C 0.183594 69.753906 20.246094 89.816406 45 89.816406 C 69.753906 89.816406 89.816406 69.753906 89.816406 45 C 89.816406 20.246094 69.753906 0.183594 45 0.183594 Z M 45 0.183594 " clip-rule="nonzero"/></clipPath><clipPath id="aaf6f05fa1"><rect x="0" width="90" y="0" height="90"/></clipPath><clipPath id="f204711526"><path d="M 0.527344 0.683594 L 58.855469 0.683594 L 58.855469 28.3125 L 0.527344 28.3125 Z M 0.527344 0.683594 " clip-rule="nonzero"/></clipPath><clipPath id="4d90c2feb1"><path d="M 5 32.355469 L 55 32.355469 L 55 48.679688 L 5 48.679688 Z M 5 32.355469 " clip-rule="nonzero"/></clipPath><clipPath id="103997344b"><rect x="0" width="60" y="0" height="49"/></clipPath></defs><g clip-path="url(#c39faa4fce)"><g transform="matrix(1, 0, 0, 1, 0, -0.000000000000008916)"><g clip-path="url(#45f579503c)"><g clip-path="url(#a5176435bb)"><g clip-path="url(#228c96cd6f)"><rect x="-31.68" width="207.36" fill="#a65f3d" height="207.359996" y="-31.679999" fill-opacity="1"/></g></g></g></g></g><g clip-path="url(#649b799317)"><g clip-path="url(#5c316f3bec)"><path stroke-linecap="butt" transform="matrix(0.75, 0, 0, 0.75, 7.250866, 7.250866)" fill="none" stroke-linejoin="miter" d="M 86.326981 -0.00115527 C 38.649892 -0.00115527 -0.00115427 38.649891 -0.00115427 86.32698 C -0.00115427 134.00407 38.649892 172.655116 86.326981 172.655116 C 134.004071 172.655116 172.655117 134.00407 172.655117 86.32698 C 172.655117 38.649891 134.004071 -0.00115527 86.326981 -0.00115527 Z M 86.326981 -0.00115527 " stroke="#d8a784" stroke-width="2" stroke-opacity="1" stroke-miterlimit="4"/></g></g><g clip-path="url(#bdeef7979a)"><g clip-path="url(#d55fabe051)"><g transform="matrix(1, 0, 0, 1, 27, 27)"><g clip-path="url(#aaf6f05fa1)"><g clip-path="url(#4640fb1085)"><g clip-path="url(#ba4cbba456)"><path fill="#a65f3d" d="M 0.183594 0.183594 L 89.816406 0.183594 L 89.816406 89.816406 L 0.183594 89.816406 Z M 0.183594 0.183594 " fill-opacity="1" fill-rule="nonzero"/></g></g></g></g></g></g><g fill="#d8a784" fill-opacity="1"><g transform="translate(33.272815, 108.16975)"><g><path d="M 3.203125 0.25 C 2.671875 0.25 2.40625 0.0820312 2.40625 -0.25 L 2.40625 -16.671875 C 2.40625 -16.835938 2.472656 -16.957031 2.609375 -17.03125 C 2.742188 -17.113281 2.941406 -17.15625 3.203125 -17.15625 C 3.421875 -17.15625 3.59375 -17.113281 3.71875 -17.03125 C 3.851562 -16.957031 3.984375 -16.835938 4.109375 -16.671875 L 12.875 -3.09375 L 12.875 -16.671875 C 12.875 -16.835938 12.9375 -16.957031 13.0625 -17.03125 C 13.195312 -17.113281 13.394531 -17.15625 13.65625 -17.15625 C 14.1875 -17.15625 14.453125 -16.992188 14.453125 -16.671875 L 14.453125 -0.25 C 14.453125 -0.0820312 14.382812 0.0390625 14.25 0.125 C 14.125 0.207031 13.9375 0.25 13.6875 0.25 C 13.488281 0.25 13.332031 0.21875 13.21875 0.15625 C 13.113281 0.101562 13 -0.03125 12.875 -0.25 L 4 -14 L 4 -0.25 C 4 -0.0820312 3.929688 0.0390625 3.796875 0.125 C 3.660156 0.207031 3.460938 0.25 3.203125 0.25 Z M 3.203125 0.25 "/></g></g></g><g fill="#d8a784" fill-opacity="1"><g transform="translate(50.127879, 108.16975)"><g><path d="M 1.140625 0.25 C 0.828125 0.25 0.613281 0.171875 0.5 0.015625 C 0.382812 -0.128906 0.367188 -0.320312 0.453125 -0.5625 L 6.140625 -16.4375 C 6.234375 -16.707031 6.351562 -16.894531 6.5 -17 C 6.644531 -17.101562 6.859375 -17.15625 7.140625 -17.15625 C 7.429688 -17.15625 7.644531 -17.101562 7.78125 -17 C 7.914062 -16.894531 8.035156 -16.707031 8.140625 -16.4375 L 13.828125 -0.5625 C 13.921875 -0.320312 13.898438 -0.128906 13.765625 0.015625 C 13.640625 0.171875 13.421875 0.25 13.109375 0.25 C 12.835938 0.25 12.644531 0.195312 12.53125 0.09375 C 12.414062 0 12.3125 -0.164062 12.21875 -0.40625 L 10.671875 -4.765625 L 3.546875 -4.765625 L 2 -0.40625 C 1.914062 -0.164062 1.816406 0 1.703125 0.09375 C 1.585938 0.195312 1.398438 0.25 1.140625 0.25 Z M 4.0625 -6.203125 L 10.15625 -6.203125 L 7.125 -14.796875 Z M 4.0625 -6.203125 "/></g></g></g><g fill="#d8a784" fill-opacity="1"><g transform="translate(64.392618, 108.16975)"><g><path d="M 3.203125 0.25 C 2.671875 0.25 2.40625 0.0820312 2.40625 -0.25 L 2.40625 -16.375 C 2.40625 -16.539062 2.472656 -16.660156 2.609375 -16.734375 C 2.742188 -16.816406 2.941406 -16.859375 3.203125 -16.859375 L 11.125 -16.859375 C 11.300781 -16.859375 11.425781 -16.804688 11.5 -16.703125 C 11.582031 -16.609375 11.625 -16.421875 11.625 -16.140625 C 11.625 -15.878906 11.582031 -15.691406 11.5 -15.578125 C 11.425781 -15.472656 11.300781 -15.421875 11.125 -15.421875 L 4 -15.421875 L 4 -9.15625 L 9.9375 -9.15625 C 10.113281 -9.15625 10.238281 -9.101562 10.3125 -9 C 10.382812 -8.90625 10.421875 -8.71875 10.421875 -8.4375 C 10.421875 -8.175781 10.382812 -7.988281 10.3125 -7.875 C 10.238281 -7.769531 10.113281 -7.71875 9.9375 -7.71875 L 4 -7.71875 L 4 -0.25 C 4 -0.0820312 3.929688 0.0390625 3.796875 0.125 C 3.660156 0.207031 3.460938 0.25 3.203125 0.25 Z M 3.203125 0.25 "/></g></g></g><g fill="#d8a784" fill-opacity="1"><g transform="translate(76.264912, 108.16975)"><g><path d="M 1.140625 0.25 C 0.828125 0.25 0.613281 0.171875 0.5 0.015625 C 0.382812 -0.128906 0.367188 -0.320312 0.453125 -0.5625 L 6.140625 -16.4375 C 6.234375 -16.707031 6.351562 -16.894531 6.5 -17 C 6.644531 -17.101562 6.859375 -17.15625 7.140625 -17.15625 C 7.429688 -17.15625 7.644531 -17.101562 7.78125 -17 C 7.914062 -16.894531 8.035156 -16.707031 8.140625 -16.4375 L 13.828125 -0.5625 C 13.921875 -0.320312 13.898438 -0.128906 13.765625 0.015625 C 13.640625 0.171875 13.421875 0.25 13.109375 0.25 C 12.835938 0.25 12.644531 0.195312 12.53125 0.09375 C 12.414062 0 12.3125 -0.164062 12.21875 -0.40625 L 10.671875 -4.765625 L 3.546875 -4.765625 L 2 -0.40625 C 1.914062 -0.164062 1.816406 0 1.703125 0.09375 C 1.585938 0.195312 1.398438 0.25 1.140625 0.25 Z M 4.0625 -6.203125 L 10.15625 -6.203125 L 7.125 -14.796875 Z M 4.0625 -6.203125 "/></g></g></g><g fill="#d8a784" fill-opacity="1"><g transform="translate(90.529651, 108.16975)"><g><path d="M 6.1875 0.34375 C 5.832031 0.34375 5.4375 0.304688 5 0.234375 C 4.570312 0.160156 4.140625 0.046875 3.703125 -0.109375 C 3.265625 -0.273438 2.847656 -0.488281 2.453125 -0.75 C 2.066406 -1.019531 1.734375 -1.347656 1.453125 -1.734375 C 1.367188 -1.847656 1.328125 -1.957031 1.328125 -2.0625 C 1.335938 -2.175781 1.429688 -2.316406 1.609375 -2.484375 C 1.773438 -2.660156 1.914062 -2.757812 2.03125 -2.78125 C 2.144531 -2.800781 2.3125 -2.707031 2.53125 -2.5 C 2.8125 -2.238281 3.128906 -2.007812 3.484375 -1.8125 C 3.847656 -1.625 4.253906 -1.472656 4.703125 -1.359375 C 5.148438 -1.242188 5.644531 -1.1875 6.1875 -1.1875 C 6.851562 -1.1875 7.425781 -1.25 7.90625 -1.375 C 8.394531 -1.507812 8.800781 -1.710938 9.125 -1.984375 C 9.445312 -2.253906 9.6875 -2.597656 9.84375 -3.015625 C 10.007812 -3.429688 10.09375 -3.921875 10.09375 -4.484375 C 10.09375 -4.953125 10.007812 -5.351562 9.84375 -5.6875 C 9.6875 -6.019531 9.453125 -6.3125 9.140625 -6.5625 C 8.835938 -6.8125 8.476562 -7.035156 8.0625 -7.234375 C 7.644531 -7.429688 7.175781 -7.609375 6.65625 -7.765625 C 6.21875 -7.898438 5.769531 -8.0625 5.3125 -8.25 C 4.851562 -8.4375 4.414062 -8.664062 4 -8.9375 C 3.59375 -9.207031 3.226562 -9.523438 2.90625 -9.890625 C 2.59375 -10.265625 2.34375 -10.695312 2.15625 -11.1875 C 1.96875 -11.6875 1.875 -12.265625 1.875 -12.921875 C 1.875 -13.609375 1.992188 -14.207031 2.234375 -14.71875 C 2.472656 -15.238281 2.8125 -15.679688 3.25 -16.046875 C 3.6875 -16.410156 4.203125 -16.6875 4.796875 -16.875 C 5.390625 -17.0625 6.046875 -17.15625 6.765625 -17.15625 C 7.398438 -17.15625 7.984375 -17.066406 8.515625 -16.890625 C 9.054688 -16.710938 9.550781 -16.476562 10 -16.1875 C 10.457031 -15.894531 10.890625 -15.5625 11.296875 -15.1875 C 11.429688 -15.070312 11.488281 -14.953125 11.46875 -14.828125 C 11.445312 -14.703125 11.367188 -14.570312 11.234375 -14.4375 C 11.085938 -14.28125 10.945312 -14.171875 10.8125 -14.109375 C 10.675781 -14.046875 10.539062 -14.066406 10.40625 -14.171875 C 10.070312 -14.441406 9.722656 -14.6875 9.359375 -14.90625 C 8.992188 -15.132812 8.597656 -15.3125 8.171875 -15.4375 C 7.753906 -15.5625 7.285156 -15.625 6.765625 -15.625 C 6.253906 -15.625 5.800781 -15.566406 5.40625 -15.453125 C 5.007812 -15.335938 4.664062 -15.164062 4.375 -14.9375 C 4.09375 -14.71875 3.882812 -14.4375 3.75 -14.09375 C 3.613281 -13.757812 3.546875 -13.367188 3.546875 -12.921875 C 3.546875 -12.390625 3.628906 -11.9375 3.796875 -11.5625 C 3.960938 -11.1875 4.203125 -10.859375 4.515625 -10.578125 C 4.835938 -10.304688 5.210938 -10.070312 5.640625 -9.875 C 6.078125 -9.6875 6.550781 -9.515625 7.0625 -9.359375 C 7.582031 -9.191406 8.117188 -8.988281 8.671875 -8.75 C 9.234375 -8.519531 9.742188 -8.222656 10.203125 -7.859375 C 10.671875 -7.492188 11.046875 -7.039062 11.328125 -6.5 C 11.609375 -5.957031 11.75 -5.285156 11.75 -4.484375 C 11.75 -3.691406 11.625 -2.992188 11.375 -2.390625 C 11.125 -1.796875 10.757812 -1.296875 10.28125 -0.890625 C 9.800781 -0.484375 9.210938 -0.175781 8.515625 0.03125 C 7.828125 0.238281 7.050781 0.34375 6.1875 0.34375 Z M 6.1875 0.34375 "/></g></g></g><g fill="#d8a784" fill-opacity="1"><g transform="translate(103.589178, 108.16975)"><g><path d="M 0.875 0 C 0.695312 0 0.566406 -0.0507812 0.484375 -0.15625 C 0.410156 -0.269531 0.375 -0.457031 0.375 -0.71875 C 0.375 -1 0.410156 -1.1875 0.484375 -1.28125 C 0.566406 -1.382812 0.695312 -1.4375 0.875 -1.4375 L 2.765625 -1.4375 L 2.765625 -15.421875 L 0.875 -15.421875 C 0.695312 -15.421875 0.566406 -15.472656 0.484375 -15.578125 C 0.410156 -15.691406 0.375 -15.878906 0.375 -16.140625 C 0.375 -16.421875 0.410156 -16.609375 0.484375 -16.703125 C 0.566406 -16.804688 0.695312 -16.859375 0.875 -16.859375 L 6.265625 -16.859375 C 6.441406 -16.859375 6.566406 -16.804688 6.640625 -16.703125 C 6.710938 -16.609375 6.75 -16.421875 6.75 -16.140625 C 6.75 -15.878906 6.710938 -15.691406 6.640625 -15.578125 C 6.566406 -15.472656 6.441406 -15.421875 6.265625 -15.421875 L 4.34375 -15.421875 L 4.34375 -1.4375 L 6.265625 -1.4375 C 6.441406 -1.4375 6.566406 -1.382812 6.640625 -1.28125 C 6.710938 -1.1875 6.75 -1 6.75 -0.71875 C 6.75 -0.457031 6.710938 -0.269531 6.640625 -0.15625 C 6.566406 -0.0507812 6.441406 0 6.265625 0 Z M 0.875 0 "/></g></g></g><g transform="matrix(1, 0, 0, 1, 42, 31)"><g clip-path="url(#103997344b)"><g clip-path="url(#f204711526)"><path fill="#d8a784" d="M 12.695312 28.597656 C 12.695312 28.738281 12.808594 28.855469 12.949219 28.855469 L 46.902344 28.855469 C 47.042969 28.855469 47.15625 28.738281 47.15625 28.597656 C 47.15625 19.089844 39.433594 11.367188 29.925781 11.367188 C 20.414062 11.367188 12.695312 19.089844 12.695312 28.597656 Z M 13.207031 28.34375 C 13.34375 19.234375 20.78125 11.878906 29.925781 11.878906 C 39.066406 11.878906 46.503906 19.234375 46.644531 28.34375 Z M 51.335938 23.21875 L 51.339844 23.222656 C 51.375 23.324219 51.539062 23.84375 51.546875 23.871094 C 51.617188 24.050781 52.007812 25.175781 52.246094 25.648438 C 52.296875 25.753906 52.347656 25.835938 52.386719 25.878906 C 52.433594 25.9375 52.484375 25.964844 52.523438 25.980469 C 52.578125 26 52.652344 26.015625 52.75 26.007812 C 52.882812 26 53.078125 25.957031 53.304688 25.890625 C 53.976562 25.6875 54.949219 25.257812 55.21875 25.15625 C 55.742188 24.957031 56.253906 24.730469 56.777344 24.523438 C 57.113281 24.390625 57.453125 24.273438 57.792969 24.144531 C 57.996094 24.0625 58.398438 23.957031 58.730469 23.800781 C 59.003906 23.671875 59.230469 23.503906 59.328125 23.316406 C 59.371094 23.234375 59.394531 23.113281 59.386719 22.960938 C 59.375 22.808594 59.328125 22.609375 59.261719 22.386719 C 59.09375 21.84375 58.78125 21.144531 58.613281 20.683594 C 58.554688 20.527344 58.507812 20.40625 58.507812 20.34375 C 58.507812 20.257812 58.464844 20.175781 58.394531 20.128906 C 58.324219 20.082031 58.230469 20.074219 58.152344 20.105469 L 51.476562 22.886719 C 51.363281 22.933594 51.300781 23.050781 51.324219 23.171875 C 51.324219 23.1875 51.332031 23.203125 51.335938 23.21875 Z M 7.574219 25.875 C 7.648438 25.902344 7.726562 25.894531 7.796875 25.855469 C 7.863281 25.816406 7.90625 25.746094 7.917969 25.667969 C 7.996094 25.054688 8.476562 24.421875 8.734375 23.871094 C 8.785156 23.765625 8.953125 23.511719 9.011719 23.304688 C 9.058594 23.140625 9.042969 22.996094 8.980469 22.890625 C 8.746094 22.515625 8.367188 22.238281 7.929688 22.023438 C 7.335938 21.734375 6.632812 21.558594 6.121094 21.34375 C 5.199219 20.953125 4.257812 20.683594 3.320312 20.339844 C 3.140625 20.277344 2.835938 20.152344 2.546875 20.097656 C 2.304688 20.050781 2.074219 20.054688 1.910156 20.128906 C 1.75 20.199219 1.542969 20.453125 1.359375 20.8125 C 1.003906 21.511719 0.660156 22.625 0.601562 23.035156 C 0.585938 23.152344 0.652344 23.269531 0.765625 23.308594 Z M 51.890625 23.265625 L 58.074219 20.695312 C 58.082031 20.71875 58.089844 20.746094 58.101562 20.773438 C 58.230469 21.140625 58.476562 21.699219 58.660156 22.203125 C 58.757812 22.472656 58.835938 22.726562 58.867188 22.917969 C 58.875 22.988281 58.890625 23.046875 58.875 23.082031 C 58.816406 23.1875 58.671875 23.261719 58.511719 23.335938 C 58.191406 23.488281 57.804688 23.589844 57.605469 23.667969 C 57.269531 23.796875 56.925781 23.914062 56.589844 24.046875 C 56.070312 24.253906 55.558594 24.480469 55.035156 24.675781 C 54.773438 24.777344 53.8125 25.199219 53.152344 25.402344 C 53.003906 25.445312 52.824219 25.476562 52.738281 25.492188 C 52.519531 25.113281 52.097656 23.871094 52.027344 23.6875 C 52.019531 23.667969 51.949219 23.445312 51.890625 23.265625 Z M 8.523438 23.132812 C 8.515625 23.160156 8.492188 23.246094 8.464844 23.296875 C 8.398438 23.441406 8.304688 23.582031 8.273438 23.652344 C 8.035156 24.15625 7.644531 24.726562 7.476562 25.292969 C 6.347656 24.867188 2.121094 23.273438 1.144531 22.90625 C 1.253906 22.441406 1.53125 21.601562 1.816406 21.042969 C 1.882812 20.914062 1.949219 20.796875 2.015625 20.710938 C 2.054688 20.65625 2.085938 20.609375 2.125 20.59375 C 2.207031 20.554688 2.324219 20.574219 2.449219 20.597656 C 2.707031 20.648438 2.984375 20.761719 3.144531 20.820312 C 4.074219 21.160156 5.007812 21.429688 5.921875 21.8125 C 6.347656 21.992188 6.902344 22.144531 7.417969 22.355469 C 7.867188 22.539062 8.289062 22.769531 8.523438 23.132812 Z M 43.191406 12.125 L 45.640625 14.136719 C 45.734375 14.214844 45.875 14.210938 45.96875 14.132812 C 47.261719 13.023438 48.542969 11.175781 49.632812 9.851562 C 49.742188 9.714844 50.476562 8.902344 50.742188 8.488281 C 50.808594 8.390625 50.847656 8.308594 50.863281 8.25 C 50.882812 8.179688 50.882812 8.117188 50.871094 8.074219 C 50.832031 7.925781 50.660156 7.6875 50.410156 7.433594 C 49.910156 6.933594 49.097656 6.320312 48.855469 6.160156 C 48.703125 6.0625 48.492188 6.070312 48.273438 6.210938 C 47.988281 6.390625 47.652344 6.8125 47.542969 6.917969 C 46.574219 7.847656 45.726562 8.890625 44.800781 9.863281 C 44.421875 10.257812 44.039062 10.644531 43.671875 11.050781 C 43.53125 11.207031 43.398438 11.367188 43.265625 11.535156 C 43.253906 11.546875 43.113281 11.777344 43.097656 11.816406 C 43.042969 11.957031 43.117188 12.046875 43.140625 12.074219 C 43.15625 12.09375 43.171875 12.109375 43.191406 12.125 Z M 9.988281 8.238281 C 9.933594 8.28125 9.902344 8.34375 9.894531 8.410156 C 9.867188 8.644531 9.976562 8.910156 10.164062 9.164062 C 10.378906 9.457031 10.695312 9.742188 10.851562 9.945312 C 11.28125 10.503906 12.367188 12 13.308594 12.949219 C 13.75 13.394531 14.167969 13.714844 14.480469 13.816406 C 14.585938 13.847656 14.710938 13.835938 14.835938 13.78125 C 14.996094 13.710938 15.167969 13.550781 15.257812 13.480469 C 15.441406 13.335938 16.550781 12.613281 16.984375 12.234375 C 17.085938 12.148438 17.15625 12.074219 17.1875 12.023438 C 17.238281 11.949219 17.25 11.882812 17.25 11.835938 C 17.25 11.726562 17.164062 11.511719 17.007812 11.269531 C 16.726562 10.828125 16.234375 10.226562 16.09375 10.050781 C 15.0625 8.75 13.894531 7.566406 12.847656 6.285156 C 12.757812 6.175781 12.597656 6.160156 12.488281 6.246094 Z M 48.613281 6.613281 C 48.878906 6.792969 49.597656 7.34375 50.046875 7.796875 C 50.160156 7.910156 50.257812 8.015625 50.320312 8.105469 C 50.332031 8.121094 50.34375 8.136719 50.351562 8.152344 C 50.164062 8.5 49.347656 9.386719 49.234375 9.527344 C 48.210938 10.777344 47.015625 12.5 45.796875 13.601562 L 43.667969 11.855469 L 43.675781 11.84375 C 43.796875 11.6875 43.921875 11.539062 44.050781 11.394531 C 44.414062 10.992188 44.796875 10.605469 45.167969 10.214844 C 46.089844 9.25 46.933594 8.210938 47.898438 7.285156 C 47.984375 7.203125 48.222656 6.902344 48.453125 6.710938 C 48.503906 6.671875 48.578125 6.628906 48.613281 6.613281 Z M 16.710938 11.792969 C 16.371094 12.128906 15.136719 12.925781 14.945312 13.074219 C 14.890625 13.117188 14.800781 13.199219 14.707031 13.269531 C 14.675781 13.285156 14.628906 13.308594 14.609375 13.320312 C 14.351562 13.226562 14.027344 12.945312 13.671875 12.589844 C 12.746094 11.652344 11.679688 10.179688 11.253906 9.632812 C 11.101562 9.433594 10.789062 9.152344 10.574219 8.859375 C 10.5 8.757812 10.429688 8.65625 10.40625 8.558594 C 10.40625 8.558594 12.039062 7.261719 12.609375 6.804688 C 13.617188 8.011719 14.714844 9.136719 15.691406 10.371094 C 15.828125 10.539062 16.304688 11.117188 16.578125 11.542969 C 16.628906 11.628906 16.683594 11.730469 16.710938 11.792969 Z M 43.382812 11.660156 C 43.332031 11.652344 43.28125 11.65625 43.234375 11.679688 C 43.292969 11.652344 43.34375 11.652344 43.382812 11.660156 Z M 29.144531 0.707031 C 29.085938 0.707031 28.882812 0.730469 28.859375 0.957031 C 28.84375 1.097656 28.855469 1.820312 28.859375 1.863281 C 28.867188 2.433594 28.863281 3.003906 28.875 3.574219 C 28.902344 4.707031 28.855469 5.839844 28.957031 6.96875 C 28.976562 7.175781 28.976562 7.472656 29.011719 7.738281 C 29.046875 7.957031 29.105469 8.15625 29.207031 8.304688 C 29.28125 8.414062 29.457031 8.5 29.699219 8.511719 C 30.027344 8.527344 30.519531 8.4375 30.671875 8.445312 C 31.148438 8.460938 31.511719 8.480469 31.78125 8.441406 C 32.015625 8.402344 32.195312 8.320312 32.324219 8.183594 C 32.519531 7.988281 32.625 7.644531 32.609375 7.035156 C 32.601562 6.789062 32.597656 6.539062 32.601562 6.292969 C 32.617188 5.550781 32.710938 4.816406 32.703125 4.078125 C 32.6875 3.035156 32.804688 1.914062 32.605469 0.886719 C 32.585938 0.765625 32.476562 0.675781 32.355469 0.679688 L 29.117188 0.707031 Z M 29.371094 1.214844 L 32.140625 1.191406 C 32.277344 2.132812 32.179688 3.144531 32.191406 4.085938 C 32.199219 4.816406 32.105469 5.546875 32.089844 6.28125 C 32.085938 6.535156 32.089844 6.792969 32.097656 7.050781 C 32.101562 7.277344 32.09375 7.457031 32.0625 7.597656 C 32.039062 7.699219 32.011719 7.773438 31.957031 7.828125 C 31.875 7.914062 31.75 7.933594 31.585938 7.945312 C 31.355469 7.964844 31.058594 7.945312 30.691406 7.933594 C 30.558594 7.925781 30.171875 7.992188 29.855469 8 C 29.769531 8.003906 29.648438 7.988281 29.609375 7.984375 C 29.542969 7.867188 29.519531 7.707031 29.503906 7.542969 C 29.484375 7.320312 29.484375 7.09375 29.46875 6.921875 C 29.363281 5.804688 29.414062 4.683594 29.386719 3.5625 C 29.375 2.992188 29.378906 2.425781 29.371094 1.855469 C 29.371094 1.828125 29.371094 1.457031 29.371094 1.214844 Z M 29.09375 1.214844 C 29.113281 1.21875 29.132812 1.21875 29.152344 1.21875 L 29.121094 1.21875 C 29.113281 1.21875 29.101562 1.21875 29.09375 1.214844 " fill-opacity="1" fill-rule="evenodd"/></g><g clip-path="url(#4d90c2feb1)"><path fill="#d8a784" d="M 5.113281 32.921875 C 5.242188 38.054688 9.351562 42.5625 13.976562 45.0625 C 18.691406 47.613281 24.351562 48.675781 30.003906 48.621094 C 35.65625 48.675781 41.316406 47.613281 46.03125 45.0625 C 50.65625 42.5625 54.765625 38.054688 54.894531 32.921875 L 5.113281 32.921875 " fill-opacity="1" fill-rule="nonzero"/></g></g></g></svg>